<?xml version="1.0" encoding="UTF-8"?>
<svg version="1.1" xmlns="http://www.w3.org/2000/svg" width="1024" height="1024">
<path d="M0 0 C337.92 0 675.84 0 1024 0 C1024 337.92 1024 675.84 1024 1024 C686.08 1024 348.16 1024 0 1024 C0 686.08 0 348.16 0 0 Z " fill="#FBFAF8" transform="translate(0,0)"/>
<path d="M0 0 C23.82859149 21.66362159 40.88321483 54.62969846 43.25390625 87 C44.6801769 130.131838 36.20008541 167.66111119 6.66650391 200.52929688 C3.68262135 203.63591777 0.34012893 206.34333433 -3.04296875 209 C-4.97118226 210.84569811 -4.97118226 210.84569811 -4.828125 213.23046875 C-3.26023189 217.24359587 -1.02506883 220.70849641 1.31640625 224.3125 C1.78884766 225.05306641 2.26128906 225.79363281 2.74804688 226.55664062 C3.90977774 228.37551219 5.08092107 230.1883659 6.25390625 232 C2.88712768 234.78740431 -0.52444845 237.19587881 -4.265625 239.453125 C-5.28720703 240.071875 -6.30878906 240.690625 -7.36132812 241.328125 C-8.41642578 241.96234375 -9.47152344 242.5965625 -10.55859375 243.25 C-11.63302734 243.8996875 -12.70746094 244.549375 -13.81445312 245.21875 C-16.45643529 246.81568144 -19.10034992 248.40931129 -21.74609375 250 C-25.14239993 246.72810064 -27.59893723 243.28965265 -29.99609375 239.25 C-30.35960937 238.64800781 -30.723125 238.04601562 -31.09765625 237.42578125 C-31.98562672 235.95361969 -32.86658533 234.4772326 -33.74609375 233 C-37.58846491 234.23947457 -41.34551717 235.61788034 -45.09790039 237.10644531 C-80.50136215 250.98393225 -120.10366033 250.76611412 -155.2578125 236.18359375 C-170.44820366 229.52904838 -183.47899463 220.05884859 -195.74609375 209 C-196.47183594 208.34644531 -197.19757813 207.69289063 -197.9453125 207.01953125 C-223.84114542 182.3843474 -238.91807371 146.25510927 -240.02734375 110.8046875 C-240.80092436 68.43977296 -227.94353081 32.93814645 -198.63671875 1.9375 C-145.12432306 -53.22695623 -55.38956149 -49.11327931 0 0 Z " fill="#FAF9F8" transform="translate(359.74609375,338)"/>
<path d="M0 0 C23.82859149 21.66362159 40.88321483 54.62969846 43.25390625 87 C44.6801769 130.131838 36.20008541 167.66111119 6.66650391 200.52929688 C3.68262135 203.63591777 0.34012893 206.34333433 -3.04296875 209 C-4.97118226 210.84569811 -4.97118226 210.84569811 -4.828125 213.23046875 C-3.26023189 217.24359587 -1.02506883 220.70849641 1.31640625 224.3125 C1.78884766 225.05306641 2.26128906 225.79363281 2.74804688 226.55664062 C3.90977774 228.37551219 5.08092107 230.1883659 6.25390625 232 C2.88712768 234.78740431 -0.52444845 237.19587881 -4.265625 239.453125 C-5.28720703 240.071875 -6.30878906 240.690625 -7.36132812 241.328125 C-8.41642578 241.96234375 -9.47152344 242.5965625 -10.55859375 243.25 C-11.63302734 243.8996875 -12.70746094 244.549375 -13.81445312 245.21875 C-16.45643529 246.81568144 -19.10034992 248.40931129 -21.74609375 250 C-25.14239993 246.72810064 -27.59893723 243.28965265 -29.99609375 239.25 C-30.35960937 238.64800781 -30.723125 238.04601562 -31.09765625 237.42578125 C-31.98562672 235.95361969 -32.86658533 234.4772326 -33.74609375 233 C-37.58846491 234.23947457 -41.34551717 235.61788034 -45.09790039 237.10644531 C-80.50136215 250.98393225 -120.10366033 250.76611412 -155.2578125 236.18359375 C-170.44820366 229.52904838 -183.47899463 220.05884859 -195.74609375 209 C-196.47183594 208.34644531 -197.19757813 207.69289063 -197.9453125 207.01953125 C-223.84114542 182.3843474 -238.91807371 146.25510927 -240.02734375 110.8046875 C-240.80092436 68.43977296 -227.94353081 32.93814645 -198.63671875 1.9375 C-145.12432306 -53.22695623 -55.38956149 -49.11327931 0 0 Z M-184.74609375 31 C-201.43127658 51.3326414 -209.91927222 75.86842343 -209.93359375 102.0625 C-209.94583984 103.21427734 -209.95808594 104.36605469 -209.97070312 105.55273438 C-209.98892306 116.38145143 -208.7248409 126.91998688 -205.62109375 137.3125 C-205.41009033 138.01979248 -205.19908691 138.72708496 -204.98168945 139.45581055 C-195.93342234 168.20167995 -175.08558742 191.17378578 -148.734375 205.171875 C-123.37895183 218.06187845 -93.36263694 221.29490907 -66.16796875 212.55859375 C-50.72495425 207.33905794 -36.79454168 200.09948438 -24.74609375 189 C-24.19711426 188.49871582 -23.64813477 187.99743164 -23.08251953 187.48095703 C-0.20217888 166.36792545 12.65895591 138.37048704 14.47265625 107.24609375 C15.19855934 76.78840979 4.3318513 48.77403132 -16.34375 26.47265625 C-37.53359471 4.66262097 -65.8566824 -7.55094807 -96.27368164 -8.35595703 C-130.11221774 -8.61016158 -162.36288918 5.47204767 -184.74609375 31 Z " fill="#154C6E" transform="translate(359.74609375,338)"/>
<path d="M0 0 C13.34994565 10.69018636 19.63093287 28.71016529 21.63592529 45.17771912 C22.01147002 49.1268648 22.03477038 53.07058842 22.0546875 57.03515625 C22.06038757 57.93794815 22.06608765 58.84074005 22.07196045 59.77088928 C22.08136137 61.67610522 22.08792477 63.58133707 22.09179688 65.48657227 C22.10143017 68.34356622 22.13247085 71.19981715 22.1640625 74.05664062 C22.29816488 97.35177833 18.85083094 120.63096847 2.20703125 138.22265625 C-9.51684125 149.28548121 -23.17255061 152.80310595 -38.8984375 152.7578125 C-40.001875 152.77392578 -41.1053125 152.79003906 -42.2421875 152.80664062 C-57.51542245 152.81560379 -71.13266628 148.43042185 -82.4609375 137.8828125 C-91.44061503 128.2314843 -96.37593338 117.25098746 -99.1484375 104.4453125 C-99.32431396 103.74140381 -99.50019043 103.03749512 -99.68139648 102.31225586 C-101.66352069 93.37286686 -101.48525609 84.34136101 -101.46411133 75.23266602 C-101.46097131 72.41317309 -101.48440146 69.59475301 -101.50976562 66.77539062 C-101.56794748 50.28453755 -100.15094635 34.58247234 -93.1484375 19.4453125 C-92.59542969 18.23488281 -92.59542969 18.23488281 -92.03125 17 C-85.34336749 3.76260495 -74.11090229 -4.52689989 -60.53515625 -9.828125 C-40.03468763 -16.06885685 -17.08971148 -12.36673667 0 0 Z " fill="#154B6D" transform="translate(698.1484375,350.5546875)"/>
<path d="M0 0 C78.78481013 0 78.78481013 0 91.1015625 10.8515625 C100.72767785 21.13307294 101.46866983 32.42569265 101.2734375 45.83203125 C100.95682223 54.60478201 98.04576786 60.83278637 92.08203125 67.23828125 C88.46868233 70.29573033 84.34154975 72.18301338 80 74 C80.7734375 74.40089844 81.546875 74.80179687 82.34375 75.21484375 C94.309323 81.74555872 100.77625109 88.96147075 105 102 C105.8125 105.5 105.8125 105.5 106 109 C106.061875 109.83402344 106.12375 110.66804688 106.1875 111.52734375 C106.66976264 122.75502079 104.75185502 135.49646155 97.04296875 144.109375 C70.91017246 168.29345417 33.14364321 159 0 159 C0 106.53 0 54.06 0 0 Z " fill="#144A6D" transform="translate(743,341)"/>
<path d="M0 0 C9.24 0 18.48 0 28 0 C25 11 25 11 23.8125 14.0625 C21.49126662 22.45465146 23.52019828 31.36112405 25 39.75 C25.37939679 41.93153157 25.75454015 44.11380802 26.125 46.296875 C26.29257812 47.24916992 26.46015625 48.20146484 26.6328125 49.18261719 C27.01981235 52.15201766 27.06187769 55.00887684 27 58 C27.66 58 28.32 58 29 58 C29.24363281 56.78054688 29.48726563 55.56109375 29.73828125 54.3046875 C31.12003715 48.10192352 33.15219538 42.1388649 35.1875 36.125 C35.58388672 34.94421875 35.98027344 33.7634375 36.38867188 32.546875 C39.34094149 23.80853605 42.44190883 15.13333137 45.6875 6.5 C46.49497922 4.34672208 47.27277043 2.18168871 48 0 C62.85684291 2.20223114 79.54366128 8.89416318 89 21 C92.87270855 27.16802145 95.41694297 33.90555922 97 41 C97.16371094 41.66644531 97.32742188 42.33289063 97.49609375 43.01953125 C97.9814229 46.68563297 97.30057877 48.53897716 95.265625 51.66015625 C92.95260234 54.55941051 90.52899707 57.28779999 88 60 C87.37738281 60.70253906 86.75476563 61.40507813 86.11328125 62.12890625 C70.75381807 78.62117148 46.75475278 90.01727977 24.21240234 91.13867188 C-5.58245159 92.07506846 -30.21999819 86.27007134 -53 66 C-68.14042404 51.64947517 -68.14042404 51.64947517 -68.375 44.125 C-68.24172536 33.13590034 -64.02645406 24.97548969 -56.42578125 17.17578125 C-50.18690579 11.57988168 -42.95512566 8.41832117 -35.3125 5.1875 C-34.59964844 4.88497314 -33.88679688 4.58244629 -33.15234375 4.27075195 C-28.73965399 2.48014724 -24.74054633 1.47840376 -20 1 C-14.54078781 15.10699078 -9.12894157 29.22040589 -4.3125 43.5625 C-3.97412109 44.55958984 -3.63574219 45.55667969 -3.28710938 46.58398438 C-2.98224609 47.50630859 -2.67738281 48.42863281 -2.36328125 49.37890625 C-2.09813721 50.1788501 -1.83299316 50.97879395 -1.55981445 51.80297852 C-1 54 -1 54 -1 58 C-0.34 58 0.32 58 1 58 C1.02578125 57.32839844 1.0515625 56.65679688 1.078125 55.96484375 C1.57578089 47.19931384 3.01422229 38.7436074 4.71582031 30.13647461 C6.31997784 21.61637485 5.26687986 15.14165981 2.4375 7.0625 C1.633125 4.731875 0.82875 2.40125 0 0 Z " fill="#164C6F" transform="translate(248,456)"/>
<path d="M0 0 C9.9 0 19.8 0 30 0 C30.09053875 16.33423594 30.16411998 32.66825538 30.20724869 49.00267315 C30.22781259 56.58821835 30.25581392 64.17359575 30.30175781 71.7590332 C30.34181594 78.37591146 30.36747759 84.9926681 30.37635398 91.60966426 C30.38153692 95.10847183 30.39358694 98.60693171 30.42292023 102.10562706 C30.45551603 106.02580308 30.45594735 109.94564908 30.45410156 113.8659668 C30.46848267 115.006772 30.48286377 116.14757721 30.49768066 117.32295227 C30.4394635 128.82596104 27.73001787 140.18051653 20 149 C9.60686385 159.20717547 -2.8787584 162.20003007 -16.9375 162.3125 C-18.11119141 162.34150391 -19.28488281 162.37050781 -20.49414062 162.40039062 C-33.00782816 162.49031762 -43.48123656 159.31192022 -53 151 C-58.70090478 145.09022586 -63 137.30628894 -63 129 C-59.8148163 128.32193683 -56.62654387 127.65964849 -53.4375 127 C-52.54224609 126.80921875 -51.64699219 126.6184375 -50.72460938 126.421875 C-45.78338125 125.40828974 -41.06147394 124.44122367 -36 125 C-34.1796875 126.4609375 -34.1796875 126.4609375 -32.875 128.375 C-30.60012414 131.64597535 -28.84813077 132.85732361 -25 134 C-18.71523923 134.74550266 -12.26536376 134.85975021 -6.75641251 131.40729523 C-2.95115236 128.35839616 -1.28817382 124.078028 -0.62873077 119.32276917 C-0.46920317 116.17310209 -0.43983551 113.04627518 -0.45410156 109.89257812 C-0.44376389 108.7014743 -0.43342621 107.51037048 -0.42277527 106.28317261 C-0.39845051 103.039793 -0.39150712 99.79695164 -0.39249516 96.55349922 C-0.38935272 93.15549411 -0.36370704 89.75765797 -0.34051514 86.35974121 C-0.30005291 79.93555332 -0.27963757 73.51146669 -0.26654124 67.08717108 C-0.25063789 59.76901739 -0.2122084 52.4510352 -0.17194796 45.1329813 C-0.08968291 30.08868675 -0.03848033 15.04448221 0 0 Z " fill="#14496C" transform="translate(544,341)"/>
<path d="M0 0 C4.50142719 3.78061042 7.34266146 8.36026625 10.375 13.3125 C10.88756348 14.13717773 11.40012695 14.96185547 11.92822266 15.81152344 C13.0393186 17.59950155 14.14778532 19.38911565 15.25390625 21.18017578 C17.03291728 24.0531592 18.82667456 26.91641503 20.625 29.77734375 C27.40733413 40.57340381 34.10152202 51.41838543 40.71020508 62.3215332 C46.29811133 71.52546945 52.00250944 80.65518191 57.72265625 89.77734375 C58.27920898 90.66977783 58.83576172 91.56221191 59.40917969 92.48168945 C60.42637493 94.09193637 61.46189693 95.69084295 62.52050781 97.27416992 C66.29487519 102.98065394 67.19203134 107.15070517 66 114 C63.6214538 120.86286955 58.94350151 125.93635598 53 130 C46.94994648 132.9032463 40.74133789 133.06972941 34.30859375 131.23046875 C29.54025351 129.17025457 26.5376219 126.81475099 23.640625 122.5 C23.0415332 121.61070801 22.44244141 120.72141602 21.82519531 119.80517578 C18.82631318 115.19613944 15.89245882 110.55150501 13 105.875 C11.67715683 103.74735014 10.35423803 101.61974729 9.03125 99.4921875 C8.36222656 98.41420898 7.69320312 97.33623047 7.00390625 96.22558594 C3.84672982 91.14363967 0.67282696 86.07218366 -2.5 81 C-3.74484991 79.00784889 -4.98964139 77.01566127 -6.234375 75.0234375 C-9.42983341 69.91037084 -12.63028177 64.80044411 -15.83178711 59.69116211 C-17.71161216 56.68636094 -19.58472932 53.67746166 -21.45703125 50.66796875 C-23.73757679 47.00504836 -26.04730706 43.36385408 -28.38671875 39.73828125 C-29.40373552 38.13807783 -30.42066791 36.53782078 -31.4375 34.9375 C-31.90446289 34.22996582 -32.37142578 33.52243164 -32.85253906 32.79345703 C-35.59074739 28.44162401 -36.95183714 25.28176298 -36 20 C-32.11100538 14.66297547 -25.95175477 11.6669104 -20.375 8.3125 C-18.48682675 7.16301074 -16.59879947 6.01328167 -14.7109375 4.86328125 C-13.87868652 4.36094971 -13.04643555 3.85861816 -12.18896484 3.34106445 C-7.59457389 0.52632103 -5.53514944 -0.66803528 0 0 Z " fill="#164C6F" transform="translate(374,575)"/>
<path d="M0 0 C10.70714258 7.11374957 17.72375481 17.23351856 20.75390625 29.72265625 C22.70160388 41.80559528 20.96783615 53.71365506 14.42578125 64.15234375 C6.88041494 74.40052784 -2.96333967 82.12245081 -15.82421875 84.33984375 C-29.86206375 85.28718298 -40.75362837 82.66816231 -51.796875 73.74609375 C-59.7901804 66.29738718 -65.61928911 55.78154859 -66.2578125 44.76171875 C-66.28152486 43.20460708 -66.28230924 41.64699983 -66.26171875 40.08984375 C-66.25269531 39.26355469 -66.24367187 38.43726563 -66.234375 37.5859375 C-65.89148899 25.3372871 -62.24034568 15.3903521 -53.82421875 6.33984375 C-50.36361521 3.26720025 -46.78636977 0.72499132 -42.82421875 -1.66015625 C-42.07914063 -2.11519531 -41.3340625 -2.57023437 -40.56640625 -3.0390625 C-28.15356374 -9.24548375 -11.49685714 -6.7581802 0 0 Z " fill="#164D6F" transform="translate(284.82421875,362.66015625)"/>
<path d="M0 0 C7.08770521 5.12860359 10.60469035 11.38042248 13.21875 19.60546875 C13.43273437 20.27449219 13.64671875 20.94351562 13.8671875 21.6328125 C20.21241191 44.11697725 19.67753207 76.94045557 8.18359375 97.765625 C4.34568231 103.31266599 -0.40311805 106.53142872 -6.78125 108.60546875 C-16.42157341 109.53387616 -23.87306524 109.18275715 -31.63671875 103.16796875 C-41.43542118 94.47658237 -43.83470775 81.08261657 -44.78125 68.60546875 C-46.44314897 19.61210654 -46.44314897 19.61210654 -34.03125 4.48046875 C-24.74153817 -4.80924308 -11.5276539 -6.68079942 0 0 Z " fill="#FAFAF8" transform="translate(672.78125,368.39453125)"/>
<path d="M0 0 C50.00924214 0 50.00924214 0 59.0859375 8.67578125 C62.1510993 12.39776344 63.68627691 16.40196918 65 21 C65.19078125 21.60070312 65.3815625 22.20140625 65.578125 22.8203125 C67.64188763 33.48308609 66.38249574 44.7182222 61.25 54.25 C57.70875031 58.57819406 53.64117289 61.90588474 49 65 C49.57556641 66.11036621 50.15113281 67.22073242 50.74414062 68.36474609 C52.8727462 72.47380241 54.99602252 76.58559244 57.11767578 80.69824219 C58.03776574 82.47992115 58.9593112 84.26084923 59.88232422 86.04101562 C61.20661066 88.59570783 62.52568791 91.15302958 63.84375 93.7109375 C64.46715271 94.90944839 64.46715271 94.90944839 65.10314941 96.13217163 C65.4835437 96.87278839 65.86393799 97.61340515 66.25585938 98.37646484 C66.59339233 99.02932465 66.93092529 99.68218445 67.27868652 100.35482788 C68 102 68 102 68 104 C60.74 104 53.48 104 46 104 C30 70.9352014 30 70.9352014 30 67 C26.7 67 23.4 67 20 67 C20 79.21 20 91.42 20 104 C13.4 104 6.8 104 0 104 C0 69.68 0 35.36 0 0 Z " fill="#164B6D" transform="translate(832,541)"/>
<path d="M0 0 C6.93 0 13.86 0 21 0 C32.28695554 20.36078254 41.4541181 41.78692911 51 63 C51 42.21 51 21.42 51 0 C57.6 0 64.2 0 71 0 C71 34.32 71 68.64 71 104 C64.07 104 57.14 104 50 104 C44.09890365 93.07856795 38.53097638 82.0747426 33.3125 70.8125 C32.79083252 69.68682617 32.26916504 68.56115234 31.73168945 67.40136719 C27.70421295 58.64746721 23.86382898 49.8316091 20 41 C19.67 61.79 19.34 82.58 19 104 C12.73 104 6.46 104 0 104 C0 69.68 0 35.36 0 0 Z " fill="#174B6D" transform="translate(597,541)"/>
<path d="M0 0 C6.93 0 13.86 0 21 0 C21 13.86 21 27.72 21 42 C30.57 42 40.14 42 50 42 C50 28.14 50 14.28 50 0 C56.6 0 63.2 0 70 0 C70 34.32 70 68.64 70 104 C63.4 104 56.8 104 50 104 C50 89.48 50 74.96 50 60 C40.43 60 30.86 60 21 60 C21 74.52 21 89.04 21 104 C14.07 104 7.14 104 0 104 C0 69.68 0 35.36 0 0 Z " fill="#174D70" transform="translate(423,541)"/>
<path d="M0 0 C6.6 0 13.2 0 20 0 C20.01458252 2.29590088 20.02916504 4.59180176 20.04418945 6.95727539 C20.0946068 14.55697625 20.16121446 22.15647376 20.23571491 29.75597477 C20.28037451 34.36195679 20.3196403 38.96785127 20.34643555 43.57397461 C20.37251261 48.02211377 20.412946 52.46991522 20.46318626 56.91784477 C20.47982526 58.61178818 20.49135798 60.30578997 20.49761391 61.99980354 C20.50728752 64.37921376 20.53538437 66.75776578 20.56762695 69.13696289 C20.56547432 70.17922279 20.56547432 70.17922279 20.5632782 71.24253845 C20.67119085 76.90158215 21.83055207 81.89834732 26 85.9375 C31.55291549 87.90415757 37.54114078 88.02452467 43 85.75 C46.06381504 83.06916184 47.70917463 80.87247612 49 77 C49.11938411 74.52206304 49.18520508 72.07001924 49.20532227 69.59106445 C49.21522186 68.83960144 49.22512146 68.08813843 49.23532104 67.31390381 C49.26690496 64.83039499 49.29168116 62.34686704 49.31640625 59.86328125 C49.33697846 58.14120487 49.35797501 56.4191335 49.37937927 54.69706726 C49.43457234 50.16466334 49.48399382 45.63221406 49.53222656 41.09973145 C49.58246176 36.47464969 49.63813729 31.8496338 49.69335938 27.22460938 C49.80090716 18.14979377 49.90185691 9.0749222 50 0 C56.6 0 63.2 0 70 0 C70.06797748 9.99722185 70.12293202 19.99428832 70.15543652 29.99168968 C70.17104287 34.63468438 70.19218844 39.27751174 70.22631836 43.92041016 C70.25909226 48.40730035 70.27689079 52.89403031 70.28463173 57.38103104 C70.29014305 59.0865188 70.30090474 60.79199854 70.31719017 62.49741745 C70.43366925 75.20930694 70.16706831 86.29000737 61 96 C53.28631312 103.61014746 43.9698792 105.10568724 33.4375 105.4375 C22.99613849 105.17086666 15.43887027 102.42475638 7.875 95.14453125 C1.70273624 88.08500457 -0.32125271 79.27062254 -0.22705078 70.04516602 C-0.22748886 68.90246498 -0.22748886 68.90246498 -0.22793579 67.73667908 C-0.22655294 65.24230176 -0.21104155 62.74823078 -0.1953125 60.25390625 C-0.19157865 58.51513329 -0.18873343 56.77635822 -0.18673706 55.0375824 C-0.17912992 50.47883209 -0.15950672 45.92021083 -0.1373291 41.36151123 C-0.11680756 36.70261378 -0.10772189 32.04369532 -0.09765625 27.38476562 C-0.07625788 18.25644483 -0.04109975 9.12825338 0 0 Z " fill="#164B6E" transform="translate(510,541)"/>
<path d="M0 0 C18.81 0 37.62 0 57 0 C57 5.94 57 11.88 57 18 C44.79 18 32.58 18 20 18 C20 25.92 20 33.84 20 42 C30.89 42 41.78 42 53 42 C53 47.94 53 53.88 53 60 C42.11 60 31.22 60 20 60 C20 68.58 20 77.16 20 86 C32.21 86 44.42 86 57 86 C57 91.94 57 97.88 57 104 C38.19 104 19.38 104 0 104 C0 69.68 0 35.36 0 0 Z " fill="#164E70" transform="translate(760,541)"/>
<path d="M0 0 C21.78 0 43.56 0 66 0 C66 5.94 66 11.88 66 18 C58.41 18 50.82 18 43 18 C43 46.38 43 74.76 43 104 C36.4 104 29.8 104 23 104 C23 75.62 23 47.24 23 18 C15.41 18 7.82 18 0 18 C0 12.06 0 6.12 0 0 Z " fill="#164E70" transform="translate(681,541)"/>
<path d="M0 0 C6.93 -0.0928125 6.93 -0.0928125 14 -0.1875 C16.16175781 -0.22846802 16.16175781 -0.22846802 18.3671875 -0.27026367 C33.05007997 -0.36530188 33.05007997 -0.36530188 39.05859375 4.75390625 C39.74115234 5.64916016 39.74115234 5.64916016 40.4375 6.5625 C40.91058594 7.16191406 41.38367188 7.76132812 41.87109375 8.37890625 C44.50658657 12.16343746 44.22000862 15.7887826 44.25 20.25 C44.270625 21.00152344 44.29125 21.75304687 44.3125 22.52734375 C44.35705833 28.91032504 42.94008501 33.01372249 38.375 37.6875 C30.62025597 43.57381518 21.78214758 43.38760331 12.4375 43.1875 C8.333125 43.125625 4.22875 43.06375 0 43 C0 28.81 0 14.62 0 0 Z " fill="#F7F7F6" transform="translate(773,432)"/>
<path d="M0 0 C6.2184375 -0.0928125 6.2184375 -0.0928125 12.5625 -0.1875 C13.85615479 -0.21481201 15.14980957 -0.24212402 16.48266602 -0.27026367 C23.75453375 -0.32274165 29.2450924 -0.22383501 34.9609375 4.68359375 C35.42757812 5.26238281 35.89421875 5.84117187 36.375 6.4375 C36.85710938 7.01371094 37.33921875 7.58992188 37.8359375 8.18359375 C41.15100906 13.35644031 40.43455886 20.1058016 40 26 C38.38081466 30.77233575 36.2095738 33.25888217 32 36 C27.76375959 37.67437682 24.26895619 38.24028669 19.7265625 38.1953125 C18.68580566 38.19031738 17.64504883 38.18532227 16.57275391 38.18017578 C14.61861572 38.15286377 14.61861572 38.15286377 12.625 38.125 C8.45875 38.08375 4.2925 38.0425 0 38 C0 25.46 0 12.92 0 0 Z " fill="#FBFAF8" transform="translate(773,367)"/>
<path d="M0 0 C18.81 0 37.62 0 57 0 C57 5.94 57 11.88 57 18 C44.79 18 32.58 18 20 18 C20 25.92 20 33.84 20 42 C30.89 42 41.78 42 53 42 C53 47.94 53 53.88 53 60 C42.11 60 31.22 60 20 60 C20 68.58 20 77.16 20 86 C32.21 86 44.42 86 57 86 C57 91.94 57 97.88 57 104 C38.19 104 19.38 104 0 104 C0 69.68 0 35.36 0 0 Z M2 1 C2 34.33 2 67.66 2 102 C19.82 102 37.64 102 56 102 C56 97.38 56 92.76 56 88 C43.46 87.67 30.92 87.34 18 87 C18.33 77.43 18.66 67.86 19 58 C34.84 58.495 34.84 58.495 51 59 C51 54.05 51 49.1 51 44 C48.86917969 43.95101562 46.73835937 43.90203125 44.54296875 43.8515625 C42.4777122 43.79754147 40.41257098 43.74023854 38.34741211 43.68261719 C36.91292932 43.64435134 35.47835135 43.60949419 34.04370117 43.578125 C31.98061122 43.53242138 29.91817505 43.47443807 27.85546875 43.4140625 C26.61434326 43.3826416 25.37321777 43.3512207 24.09448242 43.31884766 C21 43 21 43 18 41 C18.66 33.08 19.32 25.16 20 17 C31.88 16.67 43.76 16.34 56 16 C56 11.05 56 6.1 56 1 C38.18 1 20.36 1 2 1 Z " fill="#0C355B" transform="translate(760,541)"/>
<path d="M0 0 C2.536875 -0.061875 5.07375 -0.12375 7.6875 -0.1875 C8.47729248 -0.21481201 9.26708496 -0.24212402 10.08081055 -0.27026367 C14.62285349 -0.32367245 17.39759789 0.21908024 21 3 C25.15113523 7.74415454 25.28723279 12.12244542 25.21484375 18.203125 C24.90711149 22.20923957 24.08421127 24.55027101 22 28 C17.58881459 31.58408814 13.58744371 31.36265845 8.1875 31.1875 C4.1346875 31.0946875 4.1346875 31.0946875 0 31 C0 20.77 0 10.54 0 0 Z " fill="#FBFAF9" transform="translate(852,559)"/>
<path d="M0 0 C21.78 0 43.56 0 66 0 C66 5.61 66 11.22 66 17 C58.08 17 50.16 17 42 17 C42 16.67 42 16.34 42 16 C49.59 16 57.18 16 65 16 C65 11.05 65 6.1 65 1 C51.14 1.33 37.28 1.66 23 2 C23.33 3.98 23.66 5.96 24 8 C21.77647059 13.61176471 21.77647059 13.61176471 19 15 C16.13840747 15.04610824 13.29759671 15.04669546 10.4375 15 C7.61911671 14.95420986 4.81968962 14.95295617 2 15 C1.67 15.33 1.34 15.66 1 16 C8.26 16 15.52 16 23 16 C23 16.33 23 16.66 23 17 C15.41 17 7.82 17 0 17 C0 11.39 0 5.78 0 0 Z " fill="#0E3B60" transform="translate(681,541)"/>
<path d="M0 0 C6.6 0 13.2 0 20 0 C20 13.86 20 27.72 20 42 C19.67 42 19.34 42 19 42 C19 28.47 19 14.94 19 1 C13.39 1 7.78 1 2 1 C2 34.33 2 67.66 2 102 C7.61 102 13.22 102 19 102 C19 88.14 19 74.28 19 60 C19.33 60 19.66 60 20 60 C20 74.52 20 89.04 20 104 C13.4 104 6.8 104 0 104 C0 69.68 0 35.36 0 0 Z " fill="#1C4166" transform="translate(423,541)"/>
<path d="M0 0 C12.54 0 25.08 0 38 0 C38 0.33 38 0.66 38 1 C25.79 1 13.58 1 1 1 C1 8.92 1 16.84 1 25 C11.89 25 22.78 25 34 25 C34 30.94 34 36.88 34 43 C23.11 43 12.22 43 1 43 C1.33 51.58 1.66 60.16 2 69 C13.55 69.33 25.1 69.66 37 70 C37 70.33 37 70.66 37 71 C31.90967159 71.02468084 26.81937785 71.04285082 21.72900391 71.05493164 C19.99657586 71.05996682 18.26415208 71.06679532 16.53173828 71.07543945 C14.04458567 71.08754065 11.55748913 71.09323638 9.0703125 71.09765625 C8.29317902 71.10281754 7.51604553 71.10797882 6.71536255 71.11329651 C1.22774341 71.11387171 1.22774341 71.11387171 -1 70 C-1.02891546 65.54168018 -1.04676981 61.08338431 -1.0625 56.625 C-1.07087891 55.35398437 -1.07925781 54.08296875 -1.08789062 52.7734375 C-1.09111328 51.56171875 -1.09433594 50.35 -1.09765625 49.1015625 C-1.10289307 47.98088379 -1.10812988 46.86020508 -1.11352539 45.70556641 C-1 43 -1 43 0 41 C10.23 41 20.46 41 31 41 C31.33 36.38 31.66 31.76 32 27 C29.88078125 27.03480469 27.7615625 27.06960938 25.578125 27.10546875 C23.51954495 27.12888288 21.46097988 27.14708876 19.40234375 27.16479492 C17.97454154 27.17985681 16.5467854 27.20031062 15.11914062 27.22631836 C13.06368627 27.26281842 11.00884495 27.27975166 8.953125 27.29296875 C7.71723633 27.3086792 6.48134766 27.32438965 5.20800781 27.34057617 C1.73441531 26.97180437 0.26984521 26.6557189 -2 24 C-2.27050781 21.45629883 -2.27050781 21.45629883 -1.953125 18.45703125 C-1.86192383 17.48999268 -1.77072266 16.5229541 -1.67675781 15.52661133 C-1.53592773 14.30095459 -1.39509766 13.07529785 -1.25 11.8125 C-0.8375 7.914375 -0.425 4.01625 0 0 Z " fill="#0F4064" transform="translate(779,558)"/>
<path d="M0 0 C8.25 0 16.5 0 25 0 C25 0.33 25 0.66 25 1 C17.41 1 9.82 1 2 1 C2 29.38 2 57.76 2 87 C-4.6 87 -11.2 87 -18 87 C-18 66.87 -18 46.74 -18 26 C-17.67 26 -17.34 26 -17 26 C-17 45.47 -17 64.94 -17 85 C-11.39 85 -5.78 85 0 85 C0 56.95 0 28.9 0 0 Z " fill="#2C4D6E" transform="translate(722,558)"/>
<path d="M0 0 C-3.83653486 3.16205898 -7.79497182 6.01209655 -11.9375 8.75 C-12.82985352 9.36681641 -12.82985352 9.36681641 -13.74023438 9.99609375 C-17.65399298 12.5710475 -20.32697088 13.4851389 -25 13 C-24.62367927 10.55990145 -24.35259818 9.31485017 -22.48120117 7.64379883 C-21.84158447 7.25216553 -21.20196777 6.86053223 -20.54296875 6.45703125 C-19.84236328 6.02326172 -19.14175781 5.58949219 -18.41992188 5.14257812 C-17.68322266 4.70365234 -16.94652344 4.26472656 -16.1875 3.8125 C-15.46240234 3.36197266 -14.73730469 2.91144531 -13.99023438 2.44726562 C-5.00269748 -3.03735204 -5.00269748 -3.03735204 0 0 Z " fill="#F0F3F4" transform="translate(367,575)"/>
<path d="M0 0 C0.66 0 1.32 0 2 0 C2 13.53 2 27.06 2 41 C7.61 41 13.22 41 19 41 C19 41.66 19 42.32 19 43 C12.73 43 6.46 43 0 43 C0 28.81 0 14.62 0 0 Z " fill="#0A3F64" transform="translate(473,602)"/>
<path d="M0 0 C0.33 0 0.66 0 1 0 C1 12.54 1 25.08 1 38 C9.91 38 18.82 38 28 38 C28 38.33 28 38.66 28 39 C17.77 39 7.54 39 -3 39 C-5.08954032 34.82091936 -5.16552619 34.19589427 -4 30 C-3.01 29.67 -2.02 29.34 -1 29 C-0.67 19.43 -0.34 9.86 0 0 Z " fill="#06244D" transform="translate(772,367)"/>
<path d="M0 0 C9.24 0 18.48 0 28 0 C27.34 1.32 26.68 2.64 26 4 C26 3.01 26 2.02 26 1 C21.05 1.33 16.1 1.66 11 2 C11 2.66 11 3.32 11 4 C10.01 4 9.02 4 8 4 C8.33 4.99 8.66 5.98 9 7 C8.67 7.66 8.34 8.32 8 9 C7.34 9 6.68 9 6 9 C5.67 8.67 5.34 8.34 5 8 C4.67 8.99 4.34 9.98 4 11 C2.68 7.37 1.36 3.74 0 0 Z " fill="#0D385E" transform="translate(248,456)"/>
<path d="M0 0 C1.32 0.33 2.64 0.66 4 1 C3.34 1 2.68 1 2 1 C2.33 12.88 2.66 24.76 3 37 C1.515 37.495 1.515 37.495 0 38 C0 25.46 0 12.92 0 0 Z " fill="#DDE4E8" transform="translate(773,367)"/>
<path d="M0 0 C0.33 0 0.66 0 1 0 C1.495 18.315 1.495 18.315 2 37 C-4.27 37 -10.54 37 -17 37 C-17 36.34 -17 35.68 -17 35 C-11.39 35 -5.78 35 0 35 C0 23.45 0 11.9 0 0 Z " fill="#0A3B60" transform="translate(850,608)"/>
<path d="M0 0 C0.66 0.66 1.32 1.32 2 2 C3.88449749 2.33582119 3.88449749 2.33582119 6.02734375 2.34375 C6.81947266 2.37339844 7.61160156 2.40304687 8.42773438 2.43359375 C9.25595703 2.45550781 10.08417969 2.47742188 10.9375 2.5 C12.57186701 2.54344682 14.20603966 2.59519802 15.83984375 2.65625 C16.56550537 2.67494141 17.29116699 2.69363281 18.03881836 2.71289062 C20 3 20 3 23 5 C14.09 5 5.18 5 -4 5 C-3.34 4.67 -2.68 4.34 -2 4 C-0.86649466 1.98330173 -0.86649466 1.98330173 0 0 Z " fill="#174365" transform="translate(517,498)"/>
<path d="M0 0 C0.33 0 0.66 0 1 0 C1.02925502 3.68748309 1.04688418 7.37493592 1.0625 11.0625 C1.07087891 12.10083984 1.07925781 13.13917969 1.08789062 14.20898438 C1.10496442 19.58723069 0.95415152 24.70333211 0 30 C0.66 30 1.32 30 2 30 C1.67 30.99 1.34 31.98 1 33 C-0.485 33.495 -0.485 33.495 -2 34 C-2.02763357 32.64595503 -2.04667422 31.29173445 -2.0625 29.9375 C-2.07410156 29.18339844 -2.08570313 28.42929687 -2.09765625 27.65234375 C-2 25 -2 25 -1.53125 21.78125 C-0.91203728 17.3739124 -0.65584075 13.00448151 -0.4375 8.5625 C-0.39431641 7.73556641 -0.35113281 6.90863281 -0.30664062 6.05664062 C-0.20161967 4.03790451 -0.10041441 2.01897049 0 0 Z " fill="#0D345A" transform="translate(374,431)"/>
<path d="M0 0 C0.33 0 0.66 0 1 0 C1.06058594 1.04800781 1.12117187 2.09601563 1.18359375 3.17578125 C1.26801738 4.55470048 1.35266447 5.93360605 1.4375 7.3125 C1.47681641 8.00279297 1.51613281 8.69308594 1.55664062 9.40429688 C1.74927415 12.47161535 2.02322717 15.06968152 3 18 C3.06740865 19.56118428 3.08514456 21.1250252 3.0625 22.6875 C3.05347656 23.49574219 3.04445313 24.30398438 3.03515625 25.13671875 C3.02355469 25.75160156 3.01195312 26.36648438 3 27 C2.01 27.33 1.02 27.66 0 28 C0 18.76 0 9.52 0 0 Z " fill="#BECBD2" transform="translate(720,409)"/>
<path d="M0 0 C0 0.66 0 1.32 0 2 C-7.26 2 -14.52 2 -22 2 C-22 1.34 -22 0.68 -22 0 C-18.70880065 -0.1964031 -15.41703066 -0.38060745 -12.125 -0.5625 C-11.18785156 -0.61857422 -10.25070312 -0.67464844 -9.28515625 -0.73242188 C-8.38925781 -0.78076172 -7.49335937 -0.82910156 -6.5703125 -0.87890625 C-5.74289551 -0.9260376 -4.91547852 -0.97316895 -4.06298828 -1.02172852 C-2 -1 -2 -1 0 0 Z " fill="#134266" transform="translate(900,643)"/>
<path d="M0 0 C0.66 0.33 1.32 0.66 2 1 C-5.3295066 5.11812484 -11.50515863 7.96241221 -20 8 C-20 7.67 -20 7.34 -20 7 C-18.02 6.34 -16.04 5.68 -14 5 C-14 4.34 -14 3.68 -14 3 C-12.125 2.375 -12.125 2.375 -10 2 C-9.34 2.66 -8.68 3.32 -8 4 C-7.44570313 3.69964844 -6.89140625 3.39929688 -6.3203125 3.08984375 C-5.59585938 2.70957031 -4.87140625 2.32929688 -4.125 1.9375 C-3.40570312 1.55464844 -2.68640625 1.17179687 -1.9453125 0.77734375 C-0.98238281 0.39255859 -0.98238281 0.39255859 0 0 Z " fill="#0D375B" transform="translate(690,494)"/>
<path d="M0 0 C4.10958767 1.45044271 7.43258745 3.51110752 11 6 C10.38125 6.144375 9.7625 6.28875 9.125 6.4375 C6.96741678 6.93152225 6.96741678 6.93152225 5 8 C4.01 7.34 3.02 6.68 2 6 C2 5.01 2 4.02 2 3 C1.34 2.01 0.68 1.02 0 0 Z " fill="#0F3D62" transform="translate(331,318)"/>
<path d="M0 0 C7.2274605 -0.24091535 13.90294338 0.65504172 21 2 C21 2.33 21 2.66 21 3 C15.72 3 10.44 3 5 3 C5 2.67 5 2.34 5 2 C3.35 1.67 1.7 1.34 0 1 C0 0.67 0 0.34 0 0 Z " fill="#1F5474" transform="translate(249,300)"/>
<path d="M0 0 C1.98 0.66 3.96 1.32 6 2 C5.67 2.66 5.34 3.32 5 4 C6.65 4.33 8.3 4.66 10 5 C10 5.33 10 5.66 10 6 C8.741875 6.020625 7.48375 6.04125 6.1875 6.0625 C5.47980469 6.07410156 4.77210938 6.08570313 4.04296875 6.09765625 C2 6 2 6 -1 5 C-0.67 3.35 -0.34 1.7 0 0 Z " fill="#0D3B60" transform="translate(241,540)"/>
<path d="M0 0 C0.66 0 1.32 0 2 0 C1.8794926 6.14587738 1.8794926 6.14587738 -0.625 8.578125 C-2.37787717 9.80796624 -4.13740456 10.94469135 -6 12 C-6.66 11.67 -7.32 11.34 -8 11 C-7.236875 10.484375 -6.47375 9.96875 -5.6875 9.4375 C-2.38424393 6.44152356 -1.51374274 4.14287486 0 0 Z " fill="#103A5E" transform="translate(543,463)"/>
<path d="M0 0 C3.67758005 3.28355362 5.81389118 6.62778237 8 11 C7.67 11.66 7.34 12.32 7 13 C2.74778373 10.16518916 1.67325479 6.38699424 0.3125 1.5625 C0.209375 1.046875 0.10625 0.53125 0 0 Z " fill="#10395E" transform="translate(383,588)"/>
<path d="M0 0 C0.99 0 1.98 0 3 0 C2.53199289 4.05606165 2.12046792 7.46588679 0 11 C-0.33 10.34 -0.66 9.68 -1 9 C-0.0625 6.375 -0.0625 6.375 1 4 C0.34 4 -0.32 4 -1 4 C-0.67 2.68 -0.34 1.36 0 0 Z " fill="#0E395E" transform="translate(301,412)"/>
<path d="M0 0 C0.33 0.66 0.66 1.32 1 2 C2.32 1.34 3.64 0.68 5 0 C5 3.86695678 3.58090029 6.5088452 2 10 C1.67 10 1.34 10 1 10 C0.67 6.7 0.34 3.4 0 0 Z " fill="#1C5475" transform="translate(122,412)"/>
<path d="M0 0 C0.66 0 1.32 0 2 0 C3.32421875 1.6796875 3.32421875 1.6796875 4.6875 3.875 C5.14511719 4.59429688 5.60273438 5.31359375 6.07421875 6.0546875 C6.37972656 6.69664062 6.68523437 7.33859375 7 8 C6.67 8.66 6.34 9.32 6 10 C5.360625 9.34 4.72125 8.68 4.0625 8 C2.35917681 5.88397569 2.35917681 5.88397569 1 6 C0.67 4.02 0.34 2.04 0 0 Z " fill="#0E395E" transform="translate(423,654)"/>
<path d="M0 0 C1 3 1 3 0 6 C-1.62332967 7.38576923 -3.28724465 8.72641268 -5 10 C-3.84414715 6.08788267 -2.64465038 3.1254959 0 0 Z " fill="#0C375D" transform="translate(142,364)"/>
<path d="M0 0 C0.66 0.33 1.32 0.66 2 1 C1.34 2.65 0.68 4.3 0 6 C-0.99 6 -1.98 6 -3 6 C-2.625 3.5625 -2.625 3.5625 -2 1 C-1.34 0.67 -0.68 0.34 0 0 Z " fill="#F9FAF9" transform="translate(355,577)"/>
<path d="M0 0 C0.66 0.33 1.32 0.66 2 1 C2.625 3.5625 2.625 3.5625 3 6 C2.34 6 1.68 6 1 6 C0.34 7.32 -0.32 8.64 -1 10 C-1.02689216 8.52093108 -1.04634621 7.04172517 -1.0625 5.5625 C-1.07410156 4.73878906 -1.08570313 3.91507813 -1.09765625 3.06640625 C-1 1 -1 1 0 0 Z " fill="#2D5978" transform="translate(616,576)"/>
<path d="M0 0 C1.485 0.99 1.485 0.99 3 2 C3.66 1.67 4.32 1.34 5 1 C5 3.31 5 5.62 5 8 C2.20127563 5.47211993 0.54226981 3.79588866 0 0 Z " fill="#0F3B5F" transform="translate(379,666)"/>
<path d="M0 0 C0.99 0.33 1.98 0.66 3 1 C3 1.66 3 2.32 3 3 C2.34 3 1.68 3 1 3 C0.67 3.66 0.34 4.32 0 5 C-1.32 4.34 -2.64 3.68 -4 3 C-2.1875 1.4375 -2.1875 1.4375 0 0 Z " fill="#134569" transform="translate(346,588)"/>
</svg>
